<svg width="57" height="57" viewBox="0 0 57 57" fill="none" xmlns="http://www.w3.org/2000/svg">
<path fill-rule="evenodd" clip-rule="evenodd" d="M33.3241 2.0508L54.2514 19.1717L54.3591 19.2903C54.685 19.6485 55.1841 20.2193 55.6067 20.9002C56.0097 21.55 56.4881 22.527 56.4881 23.672V52.1376C56.4881 54.5356 54.5475 56.4881 52.1429 56.4881H38.5859C36.7861 56.4881 35.327 55.029 35.327 53.2292V43.0046C35.327 39.0958 32.1674 35.9362 28.2805 35.9362C24.3939 35.9362 21.2341 39.0958 21.2341 43.0046V53.2292C21.2341 55.029 19.7752 56.4881 17.9753 56.4881H4.34524C1.94054 56.4881 0 54.5356 0 52.1376V23.3394C0 21.9219 0.788639 20.7789 1.23809 20.2114C1.50017 19.8806 1.75706 19.6109 1.94734 19.424C2.04378 19.3293 2.12649 19.2526 2.1887 19.1965C2.21987 19.1684 2.24614 19.1452 2.26669 19.1273L2.29322 19.1045L2.30313 19.096L2.30902 19.091C2.30902 19.091 2.31071 19.0896 3.70975 20.7518L2.31071 19.0896L2.33235 19.0714L23.0923 2.05567C25.9524 -0.683334 30.4614 -0.685487 33.3241 2.0508ZM5.111 22.4125L5.0987 22.4234C5.07682 22.4432 5.03946 22.4777 4.99179 22.5244C4.89385 22.6207 4.76647 22.7551 4.64428 22.9094C4.51831 23.0684 4.4278 23.211 4.37509 23.3218C4.3596 23.3544 4.35041 23.3778 4.34524 23.3926V52.1376L4.34537 52.1411L4.34676 52.1429H16.8889V43.0046C16.8889 36.706 21.9843 31.591 28.2805 31.591C34.577 31.591 39.6722 36.706 39.6722 43.0046V52.1429H52.1413L52.1429 52.1376V23.672C52.1446 23.6798 52.1429 23.6792 52.1429 23.672C52.1355 23.6407 52.0968 23.4849 51.9143 23.191C51.7318 22.897 51.4922 22.6033 51.2477 22.3284L30.4254 5.29348L30.3545 5.22383C29.1626 4.05159 27.2557 4.05248 26.0649 5.22589L25.9941 5.29563L5.111 22.4125Z" fill="url(#paint0_linear_20_110)"/>
<defs>
<linearGradient id="paint0_linear_20_110" x1="0" y1="28.244" x2="56.4881" y2="28.244" gradientUnits="userSpaceOnUse">
<stop offset="0.05" stop-color="#FF8C00"/>
<stop offset="0.25" stop-color="#F80032"/>
<stop offset="0.45" stop-color="#FF00A0"/>
<stop offset="0.65" stop-color="#8C28FF"/>
<stop offset="0.82" stop-color="#0023FF"/>
<stop offset="0.96" stop-color="#19A0FF"/>
</linearGradient>
</defs>
</svg>
