<svg width="55" height="55" viewBox="0 0 55 55" fill="none" xmlns="http://www.w3.org/2000/svg">
<path d="M28.6604 16.0009L30.9845 22.3923C31.0672 22.6355 31.22 22.8488 31.4236 23.0055C31.6273 23.1621 31.8727 23.255 32.129 23.2726L38.626 23.5367C38.8937 23.5567 39.1492 23.6567 39.3594 23.8238C39.5695 23.9909 39.7245 24.2173 39.8043 24.4736C39.884 24.73 39.8848 25.0044 39.8066 25.2612C39.7283 25.518 39.5746 25.7454 39.3655 25.9137L34.2594 30.1218C34.0596 30.2903 33.912 30.5124 33.8341 30.7619C33.7561 31.0114 33.7509 31.278 33.8192 31.5303L35.58 38.0802C35.6625 38.3326 35.6648 38.6045 35.5865 38.8583C35.5082 39.1121 35.3532 39.3355 35.1428 39.4976C34.9324 39.6598 34.677 39.7527 34.4116 39.7637C34.1462 39.7748 33.8839 39.7033 33.6608 39.5592L28.1674 35.7736C27.9617 35.6273 27.7155 35.5487 27.4631 35.5487C27.2107 35.5487 26.9645 35.6273 26.7588 35.7736L21.3358 39.5592C21.1088 39.7134 20.8384 39.7909 20.5641 39.7804C20.2899 39.7698 20.0262 39.6718 19.8117 39.5006C19.5972 39.3294 19.4431 39.094 19.372 38.8289C19.3009 38.5638 19.3166 38.2829 19.4167 38.0273L21.1774 31.4775C21.2457 31.2252 21.2405 30.9586 21.1625 30.7091C21.0846 30.4596 20.937 30.2375 20.7372 30.0689L15.6311 25.8608C15.422 25.6925 15.2683 25.4652 15.19 25.2084C15.1118 24.9516 15.1126 24.6772 15.1923 24.4208C15.2721 24.1645 15.4271 23.938 15.6372 23.7709C15.8474 23.6039 16.1029 23.5038 16.3706 23.4839L22.8676 23.2198C23.124 23.2022 23.3693 23.1093 23.573 22.9526C23.7766 22.796 23.9294 22.5827 24.0121 22.3394L26.2658 15.9481C26.3577 15.7012 26.5241 15.4891 26.7421 15.3412C26.96 15.1933 27.2186 15.117 27.4819 15.1228C27.7452 15.1286 28.0002 15.2163 28.2114 15.3736C28.4225 15.531 28.5795 15.7502 28.6604 16.0009Z" stroke="url(#paint0_linear_20_106)" stroke-width="4" stroke-linecap="round" stroke-linejoin="round"/>
<path d="M48.5916 16.0537C48.4485 13.5226 47.3786 11.1328 45.586 9.34016C43.7934 7.54755 41.4036 6.47766 38.8725 6.33461C37.1904 6.28698 35.5751 5.66573 34.2946 4.5739C32.4055 2.91489 29.9773 2 27.4631 2C24.9489 2 22.5207 2.91489 20.6315 4.5739C19.3511 5.66573 17.7358 6.28698 16.0537 6.33461C13.5226 6.47766 11.1328 7.54755 9.34016 9.34016C7.54755 11.1328 6.47766 13.5226 6.33461 16.0537C6.28698 17.7358 5.66573 19.3511 4.5739 20.6315C2.91489 22.5207 2 24.9489 2 27.4631C2 29.9773 2.91489 32.4055 4.5739 34.2946C5.66573 35.5751 6.28698 37.1904 6.33461 38.8725C6.47766 41.4036 7.54755 43.7934 9.34016 45.586C11.1328 47.3786 13.5226 48.4485 16.0537 48.5916C17.7358 48.6392 19.3511 49.2605 20.6315 50.3523C22.5207 52.0113 24.9489 52.9262 27.4631 52.9262C29.9773 52.9262 32.4055 52.0113 34.2946 50.3523C35.5751 49.2605 37.1904 48.6392 38.8725 48.5916C41.4036 48.4485 43.7934 47.3786 45.586 45.586C47.3786 43.7934 48.4485 41.4036 48.5916 38.8725C48.6392 37.1904 49.2605 35.5751 50.3523 34.2946C52.0113 32.4055 52.9262 29.9773 52.9262 27.4631C52.9262 24.9489 52.0113 22.5207 50.3523 20.6315C49.2605 19.3511 48.6392 17.7358 48.5916 16.0537Z" stroke="url(#paint1_linear_20_106)" stroke-width="4" stroke-linecap="round" stroke-linejoin="round"/>
<defs>
<linearGradient id="paint0_linear_20_106" x1="2" y1="27.4631" x2="52.9262" y2="27.4631" gradientUnits="userSpaceOnUse">
<stop offset="0.05" stop-color="#FF8C00"/>
<stop offset="0.25" stop-color="#F80032"/>
<stop offset="0.45" stop-color="#FF00A0"/>
<stop offset="0.65" stop-color="#8C28FF"/>
<stop offset="0.82" stop-color="#0023FF"/>
<stop offset="0.96" stop-color="#19A0FF"/>
</linearGradient>
<linearGradient id="paint1_linear_20_106" x1="2" y1="27.4631" x2="52.9262" y2="27.4631" gradientUnits="userSpaceOnUse">
<stop offset="0.05" stop-color="#FF8C00"/>
<stop offset="0.25" stop-color="#F80032"/>
<stop offset="0.45" stop-color="#FF00A0"/>
<stop offset="0.65" stop-color="#8C28FF"/>
<stop offset="0.82" stop-color="#0023FF"/>
<stop offset="0.96" stop-color="#19A0FF"/>
</linearGradient>
</defs>
</svg>
